HIERARCHY
ROOT root
{
	OFFSET 0.000000 0.000000 0.000000
	CHANNELS 6 Xposition Yposition Zposition Zrotation Yrotation Xrotation
	JOINT lhip
	{
		OFFSET 0.058581 -0.082280 -0.017664
		CHANNELS 3 Zrotation Yrotation Xrotation
		JOINT lknee
		{
			OFFSET 0.043451 -0.386469 0.008037
			CHANNELS 3 Zrotation Yrotation Xrotation
			JOINT lankle
			{
				OFFSET -0.014790 -0.426874 -0.037428
				CHANNELS 3 Zrotation Yrotation Xrotation
				JOINT ltoe
				{
					OFFSET 0.041054 -0.060286 0.122042
					CHANNELS 3 Zrotation Yrotation Xrotation
					End Site
					{
						OFFSET 0.000000 0.000000 0.000000
					}
				}
			}
		}
	}
	JOINT rhip
	{
		OFFSET -0.060310 -0.090513 -0.013543
		CHANNELS 3 Zrotation Yrotation Xrotation
		JOINT rknee
		{
			OFFSET -0.043257 -0.383688 -0.004843
			CHANNELS 3 Zrotation Yrotation Xrotation
			JOINT rankle
			{
				OFFSET 0.019056 -0.420046 -0.034562
				CHANNELS 3 Zrotation Yrotation Xrotation
				JOINT rtoe
				{
					OFFSET -0.034840 -0.062106 0.130323
					CHANNELS 3 Zrotation Yrotation Xrotation
					End Site
					{
						OFFSET 0.000000 0.000000 0.000000
					}
				}
			}
		}
	}
	JOINT lowerback
	{
		OFFSET 0.004439 0.124404 -0.038385
		CHANNELS 3 Zrotation Yrotation Xrotation
		JOINT upperback
		{
			OFFSET 0.004488 0.137956 0.026820
			CHANNELS 3 Zrotation Yrotation Xrotation
			JOINT chest
			{
				OFFSET -0.002265 0.056032 0.002855
				CHANNELS 3 Zrotation Yrotation Xrotation
				JOINT lowerneck
				{
					OFFSET -0.013390 0.211636 -0.033468
					CHANNELS 3 Zrotation Yrotation Xrotation
					JOINT upperneck
					{
						OFFSET 0.010113 0.088937 0.050410
						CHANNELS 3 Zrotation Yrotation Xrotation
						End Site
						{
							OFFSET 0.000000 0.000000 0.000000
						}
					}
				}
				JOINT lclavicle
				{
					OFFSET 0.071702 0.114000 -0.018898
					CHANNELS 3 Zrotation Yrotation Xrotation
					JOINT lshoulder
					{
						OFFSET 0.122921 0.045205 -0.019046
						CHANNELS 3 Zrotation Yrotation Xrotation
						JOINT lelbow
						{
							OFFSET 0.255332 -0.015649 -0.022946
							CHANNELS 3 Zrotation Yrotation Xrotation
							JOINT lwrist
							{
								OFFSET 0.265709 0.012698 -0.007375
								CHANNELS 3 Zrotation Yrotation Xrotation
								End Site
								{
									OFFSET 0.000000 0.000000 0.000000
								}
							}
						}
					}
				}
				JOINT rclavicle
				{
					OFFSET -0.082954 0.112472 -0.023707
					CHANNELS 3 Zrotation Yrotation Xrotation
					JOINT rshoulder
					{
						OFFSET -0.113228 0.046853 -0.008472
						CHANNELS 3 Zrotation Yrotation Xrotation
						JOINT relbow
						{
							OFFSET -0.260127 -0.014369 -0.031269
							CHANNELS 3 Zrotation Yrotation Xrotation
							JOINT rwrist
							{
								OFFSET -0.269108 0.006794 -0.006027
								CHANNELS 3 Zrotation Yrotation Xrotation
								End Site
								{
									OFFSET 0.000000 0.000000 0.000000
								}
							}
						}
					}
				}
			}
		}
	}
}
MOTION
Frames: 7
Frame Time: 0.033333
-1.562327 0.696699 0.981294 3.146087 -0.606536 84.813903 11.468111 5.048259 8.719492 -0.495370 -0.806916 0.283742 -6.980726 6.080092 -10.078187 0.000000 -0.000000 0.000000 -10.259555 -7.875279 7.727955 -1.929387 -5.411002 2.560813 9.093306 -4.551130 -6.036199 0.000000 -0.000000 0.000000 1.146222 1.889707 -2.136992 -1.123762 -1.487510 8.838783 -2.187054 0.432802 -0.931926 2.690363 15.531940 0.918948 -0.912495 9.986966 2.173512 -18.463842 2.640540 0.081008 -37.611152 -9.828074 2.552778 0.464636 -30.313312 21.123439 -40.755336 -13.239077 2.254089 14.132701 0.239681 2.762180 48.893916 7.498575 4.311694 -16.956062 22.591432 -3.293583 34.848419 3.554713 -14.182610 
-1.561838 0.698369 0.981700 2.519233 -0.345767 85.131178 11.532534 5.014464 8.570657 -0.381147 -1.634437 -0.053922 -7.146144 7.895229 -10.143808 0.000000 -0.000000 0.000000 -9.738193 -7.111018 7.146153 -1.801595 -3.976381 2.324537 9.359067 -6.577821 -6.152880 0.000000 -0.000000 0.000000 0.756472 2.129457 -2.055984 -0.941992 -1.407299 7.715512 -1.508635 1.056117 -1.057004 3.733492 14.519301 2.721832 -0.547165 10.197164 2.834553 -15.031709 0.282739 1.129746 -32.759619 -7.211413 3.424542 1.340528 -30.303109 18.721053 -36.795018 -13.406130 1.443039 12.580919 1.263102 1.860092 40.998608 6.676697 2.716288 -15.912023 20.451257 -3.378905 32.915990 3.123328 -12.137920 
-1.562208 0.698360 0.981868 2.220234 -0.164084 85.144675 11.571772 5.172176 8.684846 0.003467 -2.640335 -0.285151 -7.669257 9.133691 -10.117563 0.000000 -0.000000 0.000000 -9.409524 -7.197169 7.096287 -1.824045 -2.428100 2.014630 9.645537 -7.944046 -6.191105 0.000000 -0.000000 0.000000 0.779903 2.037283 -1.659756 -0.853491 -1.589140 6.791040 -1.197602 1.212574 -0.706359 3.636037 14.338732 2.618753 -0.198223 9.585908 3.507280 -12.101980 -0.263748 -0.206309 -26.357411 -6.170896 1.311975 0.178309 -27.512284 17.366964 -34.601860 -13.134181 5.853749 9.707473 2.463451 0.466170 33.814062 6.681389 0.027067 -14.600061 17.399736 -3.969745 30.811095 2.694660 -8.543094 
-1.562520 0.698417 0.982798 2.017584 -0.080901 85.129810 11.625466 5.697121 8.787754 0.174338 -3.922191 -0.434102 -8.000472 10.536295 -10.272892 0.000000 -0.000000 0.000000 -9.281396 -7.481025 7.164047 -1.736084 -0.605098 1.620652 9.935167 -9.524917 -6.266530 0.000000 -0.000000 0.000000 0.982381 2.493320 -1.366640 -0.991888 -1.712434 6.006948 -1.076973 1.305071 -0.326479 2.912152 12.494367 3.109437 0.351855 8.159174 2.964044 -7.614421 -1.327655 -1.128679 -19.116580 -5.046725 -1.604832 -0.309940 -23.345461 14.113197 -29.353394 -13.381350 9.699374 5.734908 3.112331 -1.584635 25.523887 5.681375 -3.833366 -13.505978 14.913386 -5.088571 27.054541 2.986617 -4.550427 
-1.562458 0.698738 0.983374 2.052699 -0.033696 85.284071 11.690863 5.966299 8.568266 0.170953 -4.657469 -0.386043 -8.216921 11.046797 -10.279007 0.000000 -0.000000 0.000000 -9.176667 -7.677779 7.038696 -1.744733 0.191781 1.465761 10.074481 -10.284519 -6.242818 0.000000 -0.000000 0.000000 1.123222 2.495443 -0.995441 -1.088950 -1.823414 5.158639 -0.970963 1.346489 -0.094141 2.361783 11.081914 3.437349 0.541711 7.187111 2.696983 -4.684033 -1.440969 -1.909925 -15.443529 -4.324812 -3.498357 -0.265712 -21.056017 12.317994 -27.086362 -13.822956 12.289493 2.588505 3.342759 -2.635552 21.679653 4.976999 -5.872898 -13.188659 14.011794 -5.758279 24.844448 3.527433 -2.589870 
-1.562501 0.698875 0.984753 1.849486 -0.126280 85.519074 11.517802 6.317796 8.538523 0.282252 -5.343928 -0.592370 -8.462529 11.910948 -10.169551 0.000000 -0.000000 0.000000 -9.112030 -7.654700 6.823332 -1.914933 1.282562 1.317941 10.274103 -11.303602 -6.168866 0.000000 -0.000000 0.000000 1.055999 2.656090 -0.851383 -1.157852 -1.918357 4.387500 -0.780077 1.449807 0.327054 1.894461 9.862800 3.645843 0.887897 5.878771 2.058486 -0.676146 -1.399295 -2.497489 -11.329926 -3.613485 -6.148586 0.674123 -17.853353 9.910544 -25.524137 -14.521995 13.643726 -1.741918 3.175243 -3.891114 17.522902 4.223558 -8.343992 -13.022588 13.197726 -6.088396 23.027709 4.435700 -1.738896 
-1.562561 0.699277 0.986294 1.896678 -0.110331 85.955005 11.495525 6.481780 8.151002 0.211301 -6.020733 -0.619423 -8.554917 12.653047 -10.169868 0.000000 -0.000000 0.000000 -8.880809 -7.778230 6.486180 -2.117145 2.176215 1.137264 10.348251 -12.354945 -6.081620 0.000000 -0.000000 0.000000 0.971686 2.635848 -0.768975 -1.185249 -2.074765 3.361382 -0.542754 1.567288 0.739091 1.644189 8.311176 3.949442 1.352795 4.731239 1.727376 3.077072 -0.931745 -3.041623 -8.110867 -2.920409 -8.236881 0.928654 -15.556981 7.268031 -22.906717 -15.590986 13.052538 -5.849251 2.835724 -4.810619 14.328010 3.315921 -10.104567 -12.838274 12.707630 -6.844342 21.177891 5.327999 -2.397179 
